<?xml version="1.0" standalone="no"?>
<!DOCTYPE svg PUBLIC "-//W3C//DTD SVG 20010904//EN"
 "http://www.w3.org/TR/2001/REC-SVG-20010904/DTD/svg10.dtd">
<svg version="1.0" xmlns="http://www.w3.org/2000/svg"
 width="800.000000pt" height="800.000000pt" viewBox="0 0 800.000000 800.000000"
 preserveAspectRatio="xMidYMid meet">
<metadata>
Created by potrace 1.11, written by Peter Selinger 2001-2013
</metadata>
<g transform="translate(0.000000,800.000000) scale(0.100000,-0.100000)"
fill="#000000" stroke="none">
<path d="M4200 7790 c-1059 -98 -2195 -204 -2526 -234 -462 -43 -623 -61 -695
-80 -476 -121 -824 -515 -880 -996 -6 -59 -9 -139 -5 -184 8 -94 479 -4971
501 -5186 8 -80 26 -188 40 -239 85 -317 312 -586 619 -736 133 -65 261 -101
416 -117 113 -11 139 -9 1660 131 3748 345 3581 329 3681 355 476 121 824 515
880 996 6 59 9 139 5 184 -9 109 -482 5002 -501 5186 -20 184 -53 308 -115
436 -174 358 -524 604 -930 654 -46 5 -116 10 -155 9 -38 -1 -936 -81 -1995
-179z m168 -1591 c238 -26 466 -91 678 -193 215 -104 385 -227 555 -402 87
-90 219 -252 219 -269 0 -17 -1060 -759 -1069 -749 -4 5 -28 36 -53 69 -53 70
-165 178 -232 225 -121 83 -234 115 -406 115 -239 0 -384 -57 -537 -210 -79
-80 -98 -105 -142 -196 -62 -129 -90 -240 -97 -389 -16 -329 111 -648 325
-816 135 -106 278 -155 451 -155 171 0 335 42 447 116 106 70 245 240 324 398
18 34 35 57 42 54 38 -14 1173 -510 1177 -513 2 -3 -17 -47 -43 -99 -319 -642
-873 -1033 -1623 -1145 -899 -133 -1712 212 -2178 926 -220 337 -329 727 -328
1169 1 326 59 582 197 872 98 206 203 359 355 517 372 389 887 630 1455 679
96 8 394 6 483 -4z"/>
</g>
</svg>
